<svg width="16" height="16" viewBox="0 0 16 16" fill="none" xmlns="http://www.w3.org/2000/svg">
<g clip-path="url(#clip0)">
<path d="M16 3.03787C15.4113 3.2992 14.7787 3.4752 14.1147 3.55454C14.7927 3.14854 15.3133 2.5052 15.558 1.73854C14.924 2.11454 14.2213 2.38787 13.4733 2.5352C12.8753 1.8972 12.0213 1.49854 11.0773 1.49854C8.958 1.49854 7.40067 3.47587 7.87933 5.52854C5.152 5.39187 2.73333 4.0852 1.114 2.0992C0.254 3.57454 0.668 5.50453 2.12933 6.48187C1.592 6.46453 1.08533 6.3172 0.643333 6.0712C0.607333 7.59187 1.69733 9.01453 3.276 9.3312C2.814 9.45654 2.308 9.48587 1.79333 9.3872C2.21067 10.6912 3.42267 11.6399 4.86 11.6665C3.48 12.7485 1.74133 13.2319 0 13.0265C1.45267 13.9579 3.17867 14.5012 5.032 14.5012C11.1267 14.5012 14.57 9.35387 14.362 4.7372C15.0033 4.27387 15.56 3.69587 16 3.03787Z" fill="black"/>
</g>
<defs>
<clipPath id="clip0">
<rect width="16" height="16" fill="white"/>
</clipPath>
</defs>
</svg>
